<svg width="15" height="16" viewBox="0 0 15 16" fill="none" xmlns="http://www.w3.org/2000/svg">
<path fill-rule="evenodd" clip-rule="evenodd" d="M12.518 8.7608C13.1512 8.35025 13.9943 8.43144 14.5324 8.9548C15.1137 9.5202 15.1585 10.4225 14.6359 11.0398L12.392 13.6897C11.1534 15.1525 9.30698 16 7.3585 16H4.44505C3.07608 16 1.75042 15.5332 0.698744 14.6809L0.661764 14.6509C0.242445 14.311 0 13.8076 0 13.2767V11.8206C0 11.6283 0.031869 11.4373 0.0943804 11.2549L0.172097 11.0282C0.3367 10.5479 0.702839 10.158 1.17972 9.95507L3.3614 9.02677C5.09808 8.28781 7.1294 8.88991 8.14711 10.4453L8.21671 10.5517C8.46832 10.9362 8.99577 11.0445 9.38572 10.7917L12.518 8.7608ZM13.823 9.6447C13.6231 9.45021 13.3097 9.42004 13.0744 9.57261C11.4233 10.6432 9.78368 11.7061 8.13911 12.7724C7.83699 12.9683 7.48201 13.0728 7.11892 13.0728H3.84555V12.0972H7.11892C7.28396 12.0972 7.44531 12.0496 7.58264 11.9606L8.02216 11.6756C7.7655 11.5359 7.53957 11.3341 7.37036 11.0755L7.30076 10.9691C6.54854 9.81948 5.04713 9.37445 3.76349 9.92064L1.58181 10.8489C1.36505 10.9412 1.19862 11.1184 1.1238 11.3367L1.04609 11.5635C1.01767 11.6464 1.00319 11.7332 1.00319 11.8206V13.2767C1.00319 13.518 1.11339 13.7469 1.30399 13.9013L1.34097 13.9313C2.21236 14.6376 3.31076 15.0243 4.44505 15.0243H7.3585C9.00721 15.0243 10.5695 14.3073 11.6176 13.0695L13.8615 10.4195C14.0557 10.1901 14.0391 9.85482 13.823 9.6447Z" fill="#1B3555"/>
<path d="M13.1253 4.95833C13.1253 7.0294 11.4464 8.70833 9.37533 8.70833C7.30426 8.70833 5.62533 7.0294 5.62533 4.95833C5.62533 2.88727 7.30426 1.20833 9.37533 1.20833C11.4464 1.20833 13.1253 2.88727 13.1253 4.95833Z" stroke="#1B3555" stroke-width="0.416667"/>
<path d="M9.44559 1.91895L7.53711 4.99372L9.44559 6.08933L11.3541 4.99372L9.44559 1.91895Z" fill="#1B3555"/>
<path d="M9.44559 6.4781L7.57245 5.38249L9.44559 7.99781L11.3187 5.38249L9.44559 6.4781Z" fill="#1B3555"/>
</svg>
