<svg width="15" height="16" viewBox="0 0 15 16" fill="none" xmlns="http://www.w3.org/2000/svg">
<path fill-rule="evenodd" clip-rule="evenodd" d="M3.125 6.90278C4.65912 6.90278 5.90278 5.65912 5.90278 4.125C5.90278 2.59088 4.65912 1.34722 3.125 1.34722C1.59088 1.34722 0.347222 2.59088 0.347222 4.125C0.347222 5.65912 1.59088 6.90278 3.125 6.90278ZM6.25 4.125C6.25 5.85089 4.85089 7.25 3.125 7.25C1.39911 7.25 0 5.85089 0 4.125C0 2.39911 1.39911 1 3.125 1C4.85089 1 6.25 2.39911 6.25 4.125Z" fill="#1B3555"/>
<path d="M3.18076 1.7253L1.67406 4.15276L3.18076 5.01771L4.68745 4.15276L3.18076 1.7253Z" fill="#1B3555"/>
<path d="M3.18076 5.32463L1.70196 4.45968L3.18076 6.52441L4.65955 4.45968L3.18076 5.32463Z" fill="#1B3555"/>
<path d="M1.25 11.8333C1.25 11.6032 1.43655 11.4167 1.66667 11.4167H2.91667C3.14679 11.4167 3.33333 11.6032 3.33333 11.8333V16H1.25V11.8333Z" fill="#1B3555"/>
<path d="M4.16667 11C4.16667 10.7699 4.35321 10.5833 4.58333 10.5833H5.83333C6.06345 10.5833 6.25 10.7699 6.25 11V16H4.16667V11Z" fill="#1B3555"/>
<path d="M7.08333 9.33333C7.08333 9.10321 7.26988 8.91667 7.5 8.91667H8.75C8.98012 8.91667 9.16667 9.10321 9.16667 9.33333V16H7.08333V9.33333Z" fill="#1B3555"/>
<path d="M10 7.66667C10 7.43655 10.1865 7.25 10.4167 7.25H11.6667C11.8968 7.25 12.0833 7.43655 12.0833 7.66667V16H10V7.66667Z" fill="#1B3555"/>
<path d="M12.9167 5.16667C12.9167 4.93655 13.1032 4.75 13.3333 4.75H14.5833C14.8135 4.75 15 4.93655 15 5.16667V16H12.9167V5.16667Z" fill="#1B3555"/>
<path fill-rule="evenodd" clip-rule="evenodd" d="M7.91634 5.99967H6.45801V5.58301H8.33301V8.29134H7.91634V5.99967Z" fill="#1B3555"/>
<path fill-rule="evenodd" clip-rule="evenodd" d="M13.7497 2.24967H6.45801V1.83301H14.1663V4.12467H13.7497V2.24967ZM10.833 4.12467H7.08301V3.70801H11.2497V6.62467H10.833V4.12467Z" fill="#1B3555"/>
</svg>
