<svg width="15" height="16" viewBox="0 0 15 16" fill="none" xmlns="http://www.w3.org/2000/svg">
<path fill-rule="evenodd" clip-rule="evenodd" d="M7.65 1.9C7.76935 1.9 7.88381 1.94741 7.9682 2.0318C8.05259 2.11619 8.1 2.23065 8.1 2.35V8.46359L7.0682 7.43179C6.98381 7.3474 6.86935 7.29999 6.75 7.29999H1.35C1.23065 7.29999 1.11619 7.25258 1.0318 7.16819C0.947411 7.0838 0.900001 6.96934 0.900001 6.84999V2.35C0.900001 2.23065 0.947411 2.11619 1.0318 2.0318C1.11619 1.94741 1.23065 1.9 1.35 1.9H7.65ZM8.60459 1.39541C8.35142 1.14223 8.00804 1 7.65 1H1.35C0.991958 1 0.648581 1.14223 0.395406 1.39541C0.142232 1.64858 0 1.99196 0 2.35V6.84999C0 7.20803 0.142232 7.55141 0.395406 7.80458C0.64858 8.05776 0.991958 8.19999 1.35 8.19999H6.5636L8.2318 9.86819C8.3605 9.99688 8.55405 10.0354 8.72221 9.96573C8.89036 9.89608 9 9.732 9 9.54999V2.35C9 1.99196 8.85777 1.64858 8.60459 1.39541Z" fill="#1B3555"/>
<path d="M4 9V15.45C4 15.6724 4.134 15.873 4.33952 15.9581C4.54505 16.0432 4.78161 15.9962 4.93891 15.8389L6.97782 13.8H13.35C13.7876 13.8 14.2073 13.6261 14.5167 13.3167C14.8262 13.0073 15 12.5876 15 12.15V6.65C15 6.21239 14.8262 5.79271 14.5167 5.48327C14.2073 5.17384 13.7876 5 13.35 5H10V6.1H13.35C13.4959 6.1 13.6358 6.15794 13.7389 6.26109C13.8421 6.36423 13.9 6.50413 13.9 6.65V12.15C13.9 12.2959 13.8421 12.4358 13.7389 12.5389C13.6358 12.642 13.4959 12.7 13.35 12.7H6.75C6.60413 12.7 6.46424 12.7579 6.36109 12.8611L5.1 14.1222V9H4Z" fill="#1B3555"/>
</svg>
