<svg width="15" height="16" viewBox="0 0 15 16" fill="none" xmlns="http://www.w3.org/2000/svg">
<path fill-rule="evenodd" clip-rule="evenodd" d="M7.31651 2.97631C6.66534 2.35119 5.78216 2 4.86127 2H0.694608C0.311076 2 0.000163078 2.29848 0.000163078 2.66667V12.6667C0.000163078 13.0349 0.311076 13.3333 0.694608 13.3333H5.27794C5.6463 13.3333 5.99957 13.4738 6.26003 13.7239C6.5205 13.9739 6.63369 14.1464 6.63369 14.5C6.63369 14.9167 6.94461 15.3333 7.50016 15.3333C8.05572 15.3333 8.3335 14.9167 8.3335 14.5V5.33333C8.3335 4.44928 7.96767 3.60143 7.31651 2.97631ZM6.66683 12.3573C6.24815 12.1252 5.90866 12 5.41683 12H1.38905V3.33333H4.5835C5.13603 3.33333 5.66593 3.54405 6.05664 3.91912C6.44734 4.29419 6.66683 4.8029 6.66683 5.33333V12.3573Z" fill="#1B3555"/>
<path fill-rule="evenodd" clip-rule="evenodd" d="M7.68349 2.97631C8.33466 2.35119 9.21784 2 10.1387 2H14.3054C14.6889 2 14.9998 2.29848 14.9998 2.66667V12.6667C14.9998 13.0349 14.6889 13.3333 14.3054 13.3333H9.72206C9.3537 13.3333 9.00043 13.4738 8.73997 13.7239C8.4795 13.9739 8.36631 14.1464 8.36631 14.5C8.36631 14.9167 8.05539 15.3333 7.49984 15.3333C6.94428 15.3333 6.6665 14.9167 6.6665 14.5V5.33333C6.6665 4.44928 7.03233 3.60143 7.68349 2.97631ZM8.33317 12.3573C8.75185 12.1252 9.09134 12 9.58317 12H13.6109V3.33333H10.4165C9.86397 3.33333 9.33407 3.54405 8.94336 3.91912C8.55266 4.29419 8.33317 4.8029 8.33317 5.33333V12.3573Z" fill="#1B3555"/>
</svg>
