<svg width="15" height="16" viewBox="0 0 15 16" fill="none" xmlns="http://www.w3.org/2000/svg">
<path fill-rule="evenodd" clip-rule="evenodd" d="M0.00274869 4.82918C-0.0529535 3.83579 0.745065 3 1.74925 3H13.2507C14.2549 3 15.053 3.83579 14.9973 4.82918L14.6653 10.7492C14.6256 11.4566 14.0097 11.9953 13.2963 11.9466L7.67812 11.5627C7.64588 11.5605 7.61416 11.5716 7.59053 11.5935L4.95427 14.0313C4.45253 14.4952 3.63198 14.1759 3.58308 13.4977L3.45549 11.7278C3.45063 11.6605 3.38879 11.6116 3.32144 11.6219L1.80593 11.8529C1.05713 11.967 0.372134 11.4167 0.33011 10.6673L0.00274869 4.82918ZM1.74925 3.69322C1.14674 3.69322 0.667928 4.19469 0.701349 4.79072L1.02871 10.6288C1.04781 10.9695 1.35917 11.2196 1.69954 11.1677L3.21505 10.9367C3.68648 10.8649 4.1194 11.2071 4.15339 11.6785L4.28098 13.4483C4.28796 13.5452 4.40519 13.5908 4.47686 13.5245L7.11313 11.0867C7.27852 10.9338 7.50056 10.8557 7.72626 10.8711L13.3444 11.255C13.6687 11.2771 13.9487 11.0323 13.9667 10.7107L14.2987 4.79072C14.3321 4.19469 13.8533 3.69322 13.2507 3.69322H1.74925Z" fill="#1B3555"/>
<path d="M3.33301 8.39963V5.93435H5.13119V6.43435H3.94484V6.9656H4.92227V7.42741H3.94484V8.39963H3.33301Z" fill="#1B3555"/>
<path d="M6.97073 5.93435H7.63106L8.54134 8.39963H7.91459L7.7094 7.84755H6.88492L6.68347 8.39963H6.05671L6.97073 5.93435ZM7.60867 7.45519L7.29903 6.50727L6.98192 7.45519H7.60867Z" fill="#1B3555"/>
<path d="M10.725 8.41699C10.5261 8.41699 10.3458 8.38227 10.1841 8.31283C10.0249 8.24338 9.88689 8.14963 9.76999 8.03158C9.65558 7.91121 9.56729 7.77695 9.50511 7.6288C9.44294 7.47833 9.41185 7.32324 9.41185 7.16352C9.41185 6.99917 9.44418 6.84292 9.50885 6.69477C9.576 6.54431 9.66802 6.41121 9.78491 6.29546C9.9043 6.17972 10.0448 6.08829 10.2065 6.02116C10.3681 5.95171 10.5447 5.91699 10.7362 5.91699C10.9327 5.91699 11.1105 5.95287 11.2697 6.02463C11.4314 6.09639 11.5694 6.19246 11.6838 6.31283C11.8007 6.4332 11.8903 6.56861 11.9524 6.71908C12.0146 6.86722 12.0457 7.01884 12.0457 7.17394C12.0457 7.33829 12.0134 7.49454 11.9487 7.64269C11.884 7.79083 11.792 7.92394 11.6726 8.04199C11.5533 8.15773 11.4127 8.24917 11.2511 8.3163C11.0919 8.38343 10.9166 8.41699 10.725 8.41699ZM10.7288 7.91005C10.8457 7.91005 10.9476 7.88921 11.0347 7.84755C11.1217 7.80357 11.1939 7.74685 11.2511 7.67741C11.3083 7.60565 11.3506 7.52579 11.3779 7.43783C11.4078 7.34755 11.4227 7.25611 11.4227 7.16352C11.4227 7.06861 11.4078 6.97718 11.3779 6.88921C11.3481 6.79894 11.3033 6.71908 11.2436 6.64963C11.1839 6.58019 11.1105 6.52579 11.0235 6.48644C10.9364 6.44477 10.8382 6.42394 10.7288 6.42394C10.6119 6.42394 10.5099 6.44593 10.4229 6.48991C10.3383 6.53158 10.2662 6.58829 10.2065 6.66005C10.1493 6.72949 10.1058 6.80935 10.0759 6.89963C10.0485 6.98759 10.0349 7.07787 10.0349 7.17046C10.0349 7.26537 10.0498 7.35681 10.0796 7.44477C10.1095 7.53273 10.153 7.61259 10.2102 7.68435C10.2699 7.7538 10.3433 7.80935 10.4303 7.85102C10.5174 7.89037 10.6169 7.91005 10.7288 7.91005ZM10.5646 7.42741H11.1391L12.083 8.39963H11.5085L10.5646 7.42741Z" fill="#1B3555"/>
</svg>
