<svg width="15" height="15" viewBox="0 0 15 15" fill="none" xmlns="http://www.w3.org/2000/svg">
<path d="M8.52371 9.71301L11.2908 9.71301C12.4124 9.71301 13.0252 8.4772 12.3071 7.66321L8.51684 3.36667C7.98792 2.7671 7.01309 2.7671 6.48418 3.36667L2.69393 7.66321C1.97586 8.4772 2.5886 9.71301 3.71026 9.71301H6.4774L6.4774 15.0003L8.51684 15.0003L8.52371 9.71301Z" fill="#1B3555"/>
<path d="M0 0.416667C0 0.186548 0.186548 0 0.416667 0H14.5833C14.8135 0 15 0.186548 15 0.416667V1.25C15 1.48012 14.8135 1.66667 14.5833 1.66667H0.416667C0.186548 1.66667 0 1.48012 0 1.25V0.416667Z" fill="#1B3555"/>
</svg>
